<?xml version="1.0" encoding="utf-8"?>
<svg version="1.1" xmlns="http://www.w3.org/2000/svg" xmlns:xlink="http://www.w3.org/1999/xlink" focusable="false" viewBox="0 0 14.9 16.21" width="138" height="150"><path d="M8.2 14.81h6.1a.5.5 0 0 0 0-1H8.2a1.92 1.92 0 0 0-1.8-1.4 1.83 1.83 0 0 0-1.8 1.4H.5a.5.5 0 0 0 0 1h4.1a1.92 1.92 0 0 0 1.8 1.4 1.92 1.92 0 0 0 1.8-1.4zm5.2-6.2h.9a.5.5 0 1 0 0-1h-.9a1.92 1.92 0 0 0-1.8-1.4 1.83 1.83 0 0 0-1.8 1.4H.5a.5.5 0 1 0 0 1h9.3a1.86 1.86 0 0 0 3.6 0zm-8.3-6.2h9.3a.47.47 0 0 0 .5-.5.47.47 0 0 0-.5-.5H5.1A1.92 1.92 0 0 0 3.3 0a1.77 1.77 0 0 0-1.9 1.3H.5a.47.47 0 0 0-.5.5.56.56 0 0 0 .5.6h.9a1.92 1.92 0 0 0 1.8 1.4 2.19 2.19 0 0 0 1.9-1.4z" fill="#010101"></path></svg>